HIERARCHY
ROOT Joint1
{
	OFFSET 0.000000 0.000000 0.000000
	CHANNELS 6 Xposition Yposition Zposition Xrotation Yrotation Zrotation
	JOINT Joint2
	{
		OFFSET -0.000000 0.000000 1.456275
		CHANNELS 6 Xposition Yposition Zposition Xrotation Yrotation Zrotation
		JOINT Joint3
		{
			OFFSET -0.000000 0.000002 1.471446
			CHANNELS 6 Xposition Yposition Zposition Xrotation Yrotation Zrotation
			JOINT Joint4
			{
				OFFSET 0.625745 0.000000 0.917755
				CHANNELS 6 Xposition Yposition Zposition Xrotation Yrotation Zrotation
				JOINT Joint5
				{
					OFFSET -0.629534 0.000001 0.940221
					CHANNELS 6 Xposition Yposition Zposition Xrotation Yrotation Zrotation
					JOINT Joint6
					{
						OFFSET -0.000001 0.113772 1.960660
						CHANNELS 6 Xposition Yposition Zposition Xrotation Yrotation Zrotation
						JOINT Joint7
						{
							OFFSET -0.669733 -0.113771 0.388340
							CHANNELS 6 Xposition Yposition Zposition Xrotation Yrotation Zrotation
							End Site
							{
								OFFSET 0.005509 0.005509 0.438980
							}
						}
					}
				}
			}
		}
	}
}
MOTION
Frames: 17
Frame Time: 0.041667
0.000000 0.000000 0.000000 -0.000000 1.019410 16.335248 -0.000000 -0.000000 1.456275 0.000000 -29.818004 0.000001 -0.000000 0.000002 1.471446 0.000000 -1.133458 27.104591 0.625745 0.000000 0.917755 0.000027 94.885528 0.000024 -0.629534 0.000001 0.940221 -0.000001 1.709738 51.151724 -0.000001 0.113772 1.960660 -88.303903 48.819788 -0.000007 -0.669733 -0.113771 0.388340 -0.591872 3.559813 128.572328 
0.000000 0.000000 0.000000 -0.000000 1.019410 16.703431 -0.000000 -0.000000 1.456275 -0.000001 -29.476416 -0.000000 -0.000000 0.000002 1.471446 0.000000 -1.133458 27.715967 0.625745 0.000000 0.917755 -0.000046 93.981388 -0.000008 -0.629533 0.000001 0.940221 -0.000001 1.709738 52.304421 -0.000001 0.113772 1.960660 -88.303889 47.892767 -0.000004 -0.669733 -0.113771 0.388340 -0.589334 3.559524 128.428402 
0.000000 0.000000 0.000000 -0.000000 1.019410 17.114934 -0.000000 0.000000 1.456275 -0.000000 -29.094639 -0.000002 -0.000000 0.000002 1.471445 -0.000001 -1.133456 28.399279 0.625745 0.000000 0.917755 0.000004 92.970868 -0.000027 -0.629533 0.000001 0.940221 -0.000001 1.709736 53.592741 -0.000001 0.113772 1.960660 -88.303882 46.856672 0.000005 -0.669733 -0.113771 0.388340 -0.586496 3.559196 128.267510 
0.000000 0.000000 0.000000 -0.000000 1.019410 17.598937 -0.000000 -0.000000 1.456275 0.000000 -28.645602 -0.000000 -0.000000 0.000002 1.471445 0.000001 -1.133458 29.202972 0.625745 0.000000 0.917755 -0.000008 91.782320 0.000092 -0.629533 0.000001 0.940221 0.000001 1.709738 55.108032 -0.000001 0.113772 1.960661 -88.303889 45.638030 -0.000002 -0.669733 -0.113771 0.388340 -0.583159 3.558795 128.078287 
0.000000 0.000000 0.000000 -0.000000 1.019410 18.130628 -0.000000 0.000000 1.456275 -0.000000 -28.152320 -0.000002 -0.000000 0.000002 1.471446 -0.000002 -1.133455 30.085863 0.625745 0.000000 0.917755 -0.000234 90.476654 -0.000066 -0.629533 0.000001 0.940221 0.000004 1.709737 56.772625 -0.000001 0.113772 1.960661 -88.303889 44.299323 0.000001 -0.669734 -0.113771 0.388340 -0.579500 3.558345 127.870430 
0.000000 0.000000 0.000000 -0.000000 1.019410 18.671712 -0.000000 0.000000 1.456275 0.000001 -27.650325 0.000002 -0.000000 0.000002 1.471445 0.000001 -1.133455 30.984330 0.625745 0.000000 0.917755 -0.000156 89.147930 0.000065 -0.629534 0.000001 0.940221 -0.000003 1.709736 58.466624 -0.000001 0.113772 1.960661 -88.303889 42.936970 -0.000000 -0.669733 -0.113771 0.388340 -0.575768 3.557871 127.658886 
0.000000 0.000000 0.000000 -0.000000 1.019410 19.193521 -0.000000 0.000000 1.456275 0.000000 -27.166215 -0.000001 -0.000000 0.000002 1.471445 -0.000001 -1.133457 31.850808 0.625745 0.000000 0.917755 0.000064 87.866545 -0.000066 -0.629533 0.000001 0.940221 -0.000001 1.709738 60.100269 -0.000001 0.113772 1.960661 -88.303896 41.623142 0.000002 -0.669733 -0.113771 0.388340 -0.572173 3.557405 127.454882 
0.000000 0.000000 0.000000 -0.000000 1.019410 19.705934 -0.000000 0.000000 1.456275 -0.000001 -26.690812 -0.000001 -0.000001 0.000002 1.471446 -0.000001 -1.133457 32.701682 0.625745 0.000000 0.917755 -0.000032 86.608213 0.000009 -0.629533 0.000001 0.940221 -0.000000 1.709737 61.704537 -0.000001 0.113772 1.960660 -88.303889 40.332960 0.000001 -0.669732 -0.113771 0.388340 -0.568657 3.556928 127.254539 
0.000000 0.000000 0.000000 -0.000000 1.019410 20.228486 -0.000000 0.000000 1.456275 0.000001 -26.206013 0.000002 -0.000000 0.000002 1.471445 -0.000002 -1.133456 33.569396 0.625745 0.000001 0.917755 -0.000039 85.324984 0.000001 -0.629533 0.000001 0.940221 -0.000001 1.709737 63.340511 -0.000000 0.113772 1.960660 -88.303889 39.017268 0.000001 -0.669733 -0.113771 0.388340 -0.565055 3.556439 127.050234 
0.000000 0.000000 0.000000 -0.000000 1.019410 20.770808 -0.000000 0.000000 1.456275 -0.000001 -25.702871 -0.000001 -0.000000 0.000002 1.471445 -0.000002 -1.133457 34.469933 0.625745 0.000000 0.917755 -0.000018 83.993213 0.000017 -0.629534 0.000001 0.940221 -0.000003 1.709736 65.038386 -0.000001 0.113772 1.960660 -88.303889 37.651790 0.000002 -0.669733 -0.113771 0.388340 -0.561324 3.555909 126.838197 
0.000000 0.000000 0.000000 -0.000000 1.019410 21.302993 -0.000000 0.000000 1.456275 0.000000 -25.209129 -0.000002 -0.000001 0.000002 1.471445 -0.000002 -1.133459 35.353647 0.625745 0.000000 0.917755 -0.000035 82.686332 0.000018 -0.629533 0.000001 0.940221 -0.000000 1.709736 66.704543 -0.000000 0.113771 1.960661 -88.303889 36.311830 -0.000002 -0.669733 -0.113771 0.388340 -0.557672 3.555380 126.630136 
0.000000 0.000000 0.000000 -0.000000 1.019410 21.785261 -0.000000 0.000000 1.456275 -0.000001 -24.761705 -0.000002 -0.000001 0.000002 1.471445 -0.000002 -1.133459 36.154459 0.625745 0.000000 0.917755 -0.000010 81.502045 0.000001 -0.629534 0.000001 0.940221 -0.000003 1.709738 68.214397 -0.000002 0.113772 1.960661 -88.303882 35.097576 -0.000002 -0.669733 -0.113771 0.388340 -0.554357 3.554888 126.441609 
0.000000 0.000000 0.000000 -0.000000 1.019410 22.192231 -0.000000 0.000000 1.456275 0.000001 -24.384134 0.000001 -0.000000 0.000002 1.471445 -0.000001 -1.133455 36.830241 0.625745 0.000000 0.917755 0.000009 80.502659 0.000003 -0.629533 0.000001 0.940221 -0.000003 1.709738 69.488514 -0.000001 0.113772 1.960661 -88.303889 34.072884 -0.000002 -0.669733 -0.113771 0.388341 -0.551562 3.554466 126.282507 
0.000000 0.000000 0.000000 -0.000000 1.019410 22.556201 -0.000000 0.000000 1.456275 -0.000001 -24.046456 0.000001 -0.000001 0.000002 1.471446 -0.000001 -1.133456 37.434621 0.625745 0.000000 0.917755 -0.000018 79.608867 -0.000002 -0.629533 0.000001 0.940220 -0.000004 1.709737 70.628036 -0.000001 0.113772 1.960661 -88.303889 33.156463 -0.000003 -0.669733 -0.113771 0.388339 -0.549064 3.554077 126.140207 
0.000000 0.000000 0.000000 -0.000000 1.019410 22.923898 -0.000000 -0.000000 1.456275 0.000000 -23.705324 0.000000 -0.000000 0.000002 1.471446 -0.000002 -1.133455 38.045188 0.625745 0.000000 0.917755 -0.000010 78.705916 0.000009 -0.629534 0.000001 0.940221 -0.000000 1.709735 71.779196 -0.000001 0.113772 1.960661 -88.303889 32.230665 -0.000003 -0.669732 -0.113771 0.388341 -0.546542 3.553683 125.996459 
0.000000 0.000000 0.000000 -0.000000 1.019410 23.342040 -0.000000 0.000000 1.456275 -0.000000 -23.317393 0.000001 -0.000001 0.000002 1.471445 -0.000001 -1.133457 38.739511 0.625745 0.000000 0.917755 0.000003 77.679099 -0.000002 -0.629534 0.000001 0.940221 -0.000000 1.709735 73.088283 -0.000001 0.113772 1.960661 -88.303889 31.177870 -0.000003 -0.669733 -0.113772 0.388341 -0.543675 3.553228 125.832971 
0.000000 0.000000 0.000000 -0.000000 1.019410 23.840022 -0.000000 0.000000 1.456275 0.000000 -22.855382 0.000001 -0.000000 0.000002 1.471445 -0.000000 -1.133457 39.566429 0.625745 0.000000 0.917755 -0.000006 76.456222 0.000000 -0.629534 0.000001 0.940221 -0.000002 1.709736 74.647356 -0.000001 0.113772 1.960661 -88.303889 29.924025 -0.000003 -0.669734 -0.113772 0.388340 -0.540261 3.552669 125.638270 
